<svg id="visual" viewBox="0 0 2000 600" width="2000" height="600" xmlns="http://www.w3.org/2000/svg" xmlns:xlink="http://www.w3.org/1999/xlink" version="1.1"><rect x="0" y="0" width="2000" height="600" fill="#fff"></rect><path d="M0 438L47.7 442.7C95.3 447.3 190.7 456.7 285.8 449.7C381 442.7 476 419.3 571.2 412.3C666.3 405.3 761.7 414.7 857 430.3C952.3 446 1047.7 468 1143 465C1238.3 462 1333.7 434 1428.8 419.5C1524 405 1619 404 1714.2 401.7C1809.3 399.3 1904.7 395.7 1952.3 393.8L2000 392L2000 601L1952.3 601C1904.7 601 1809.3 601 1714.2 601C1619 601 1524 601 1428.8 601C1333.7 601 1238.3 601 1143 601C1047.7 601 952.3 601 857 601C761.7 601 666.3 601 571.2 601C476 601 381 601 285.8 601C190.7 601 95.3 601 47.7 601L0 601Z" fill="#000" stroke-linecap="round" stroke-linejoin="miter"></path></svg>