<svg id="visual" viewBox="0 0 900 600" width="900" height="600" xmlns="http://www.w3.org/2000/svg" xmlns:xlink="http://www.w3.org/1999/xlink" version="1.1"><rect x="0" y="0" width="900" height="600" fill="#fff"></rect><path d="M0 438L21.5 442.7C43 447.3 86 456.7 128.8 449.7C171.7 442.7 214.3 419.3 257.2 412.3C300 405.3 343 414.7 385.8 430.3C428.7 446 471.3 468 514.2 465C557 462 600 434 642.8 419.5C685.7 405 728.3 404 771.2 401.7C814 399.3 857 395.7 878.5 393.8L900 392L900 601L878.5 601C857 601 814 601 771.2 601C728.3 601 685.7 601 642.8 601C600 601 557 601 514.2 601C471.3 601 428.7 601 385.8 601C343 601 300 601 257.2 601C214.3 601 171.7 601 128.8 601C86 601 43 601 21.5 601L0 601Z" fill="#000" stroke-linecap="round" stroke-linejoin="miter"></path></svg>